<svg width="26" height="28" viewBox="0 0 26 28" fill="none" xmlns="http://www.w3.org/2000/svg">
<path d="M21 8.88795C21 6.79594 20.1571 4.78961 18.6569 3.31033C17.1566 1.83105 15.1217 1 13 1C10.8783 1 8.84344 1.83105 7.34315 3.31033C5.84286 4.78961 5 6.79594 5 8.88795C5 18.0906 1 20.7199 1 20.7199H25C25 20.7199 21 18.0906 21 8.88795Z" stroke="#25282B" stroke-width="2" stroke-linecap="round" stroke-linejoin="round"/>
<path d="M17.896 24.0176C17.4387 24.9246 16.7823 25.6775 15.9925 26.2008C15.2028 26.7242 14.3074 26.9997 13.396 26.9997C12.4846 26.9997 11.5892 26.7242 10.7995 26.2008C10.0097 25.6775 9.35331 24.9246 8.896 24.0176" stroke="#25282B" stroke-width="2" stroke-linecap="round" stroke-linejoin="round"/>
</svg>
