<svg width="19" height="33" viewBox="0 0 19 33" fill="none" xmlns="http://www.w3.org/2000/svg">
<path d="M14.3333 6.92944C14.3333 5.52639 13.7714 4.18081 12.7712 3.1887C11.771 2.1966 10.4145 1.63924 9 1.63924C7.58551 1.63924 6.22896 2.1966 5.22876 3.1887C4.22857 4.18081 3.66667 5.52639 3.66667 6.92944C3.66667 13.1013 1 14.8647 1 14.8647H17C17 14.8647 14.3333 13.1013 14.3333 6.92944Z" fill="#FFEF9A" stroke="#25282B" stroke-width="2" stroke-linecap="round" stroke-linejoin="round"/>
<path d="M12.2642 17.0763C11.9593 17.6846 11.5217 18.1896 10.9952 18.5406C10.4687 18.8916 9.87175 19.0763 9.26416 19.0763C8.65657 19.0763 8.05963 18.8916 7.53313 18.5406C7.00663 18.1896 6.56903 17.6846 6.26416 17.0763" fill="#FFEF9A"/>
<path d="M12.2642 17.0763C11.9593 17.6846 11.5217 18.1896 10.9952 18.5406C10.4687 18.8916 9.87175 19.0763 9.26416 19.0763C8.65657 19.0763 8.05963 18.8916 7.53313 18.5406C7.00663 18.1896 6.56903 17.6846 6.26416 17.0763" stroke="#25282B" stroke-width="2" stroke-linecap="round" stroke-linejoin="round"/>
<path d="M1.77 25C1.77 24.36 2.26 23.97 2.95 23.97C3.64 23.97 4.13 24.36 4.13 25C4.13 25.65 3.64 26.04 2.95 26.04C2.26 26.04 1.77 25.65 1.77 25ZM5.4 25C5.4 23.79 4.36 22.91 2.95 22.91C1.55 22.91 0.5 23.79 0.5 25C0.5 26.23 1.55 27.1 2.95 27.1C4.36 27.1 5.4 26.23 5.4 25ZM2.92 30.13H7.68V27.61H1.6V28.63H6.38V29.18H1.61V31.75H7.95V30.73H2.92V30.13ZM7.68 24.42V22.65H6.36V27.25H7.68V25.5H8.89V24.42H7.68ZM15.1892 26.5C13.9892 26.69 12.9192 26.74 11.3992 26.75V25.95H14.3292V23.17H10.0892V24.23H13.0292V24.97H10.0992V27.81H10.9092C12.7392 27.81 13.9692 27.77 15.3392 27.55L15.1892 26.5ZM12.4492 29.56H15.9892V30.72H12.4492V29.56ZM11.1492 31.75H17.2792V28.52H11.1492V31.75ZM15.9492 22.66V28.11H17.2792V22.66H15.9492Z" fill="black"/>
</svg>
