<svg width="40" height="41" viewBox="0 0 40 41" fill="none" xmlns="http://www.w3.org/2000/svg">
<path d="M34.7332 7.87536C33.8819 7.00241 32.8712 6.30992 31.7588 5.83746C30.6464 5.365 29.454 5.12183 28.2499 5.12183C27.0457 5.12183 25.8534 5.365 24.7409 5.83746C23.6285 6.30992 22.6178 7.00241 21.7665 7.87536L19.9999 9.68619L18.2332 7.87536C16.5137 6.11289 14.1816 5.12274 11.7499 5.12274C9.31815 5.12274 6.98603 6.11289 5.26654 7.87536C3.54705 9.63784 2.58105 12.0283 2.58105 14.5208C2.58105 17.0133 3.54705 19.4037 5.26654 21.1662L7.03321 22.977L19.9999 36.2679L32.9665 22.977L34.7332 21.1662C35.5849 20.2937 36.2605 19.2577 36.7214 18.1174C37.1823 16.9772 37.4196 15.755 37.4196 14.5208C37.4196 13.2865 37.1823 12.0644 36.7214 10.9241C36.2605 9.78389 35.5849 8.7479 34.7332 7.87536V7.87536Z" stroke="white" stroke-width="2" stroke-linecap="round" stroke-linejoin="round"/>
</svg>
