<svg width="24" height="24" viewBox="0 0 24 24" fill="none" xmlns="http://www.w3.org/2000/svg">
<path d="M21.3807 4.59133C20.8676 4.08683 20.2583 3.68663 19.5878 3.41358C18.9172 3.14054 18.1985 3 17.4727 3C16.7468 3 16.0281 3.14054 15.3576 3.41358C14.687 3.68663 14.0778 4.08683 13.5646 4.59133L12.4997 5.63785L11.4348 4.59133C10.3983 3.57276 8.99258 3.00053 7.52679 3.00053C6.06099 3.00053 4.65523 3.57276 3.61876 4.59133C2.58229 5.6099 2 6.99139 2 8.43187C2 9.87235 2.58229 11.2538 3.61876 12.2724L4.68367 13.3189L12.4997 21L20.3158 13.3189L21.3807 12.2724C21.8941 11.7681 22.3013 11.1694 22.5791 10.5105C22.857 9.85148 23 9.14517 23 8.43187C23 7.71857 22.857 7.01225 22.5791 6.35328C22.3013 5.69431 21.8941 5.09559 21.3807 4.59133V4.59133Z" stroke="#25282B" stroke-width="2" stroke-linecap="round" stroke-linejoin="round"/>
</svg>
