<svg width="22" height="33" viewBox="0 0 22 33" fill="none" xmlns="http://www.w3.org/2000/svg">
<path d="M10.8545 19.25C15.687 19.25 19.6045 15.3325 19.6045 10.5C19.6045 5.66751 15.687 1.75 10.8545 1.75C6.022 1.75 2.10449 5.66751 2.10449 10.5C2.10449 15.3325 6.022 19.25 10.8545 19.25Z" fill="#D3DFF4" stroke="#25282B" stroke-width="2" stroke-linecap="round" stroke-linejoin="round"/>
<path d="M7.35449 12.25C7.35449 12.25 8.66699 14 10.8545 14C13.042 14 14.3545 12.25 14.3545 12.25" stroke="#25282B" stroke-width="2" stroke-linecap="round" stroke-linejoin="round"/>
<path d="M8.22949 7.875H8.23878" stroke="#25282B" stroke-width="2" stroke-linecap="round" stroke-linejoin="round"/>
<path d="M13.4795 7.875H13.4888" stroke="#25282B" stroke-width="2" stroke-linecap="round" stroke-linejoin="round"/>
<path d="M5.14355 22.4688L7.60449 29.0078L10.0596 22.4688H11.9756V31H10.499V28.1875L10.6455 24.4258L8.12598 31H7.06543L4.55176 24.4316L4.69824 28.1875V31H3.22168V22.4688H5.14355ZM16.3525 26.5117L18.3154 22.4688H19.9561L17.0967 27.8594V31H15.6084V27.8594L12.7432 22.4688H14.3896L16.3525 26.5117Z" fill="black"/>
</svg>
