<svg width="166" height="50" viewBox="0 0 166 50" fill="none" xmlns="http://www.w3.org/2000/svg">
<rect width="166" height="50" rx="25" fill="#242424"/>
<path d="M59.274 30H61.346V26.318H62.732C64.958 26.318 66.736 25.254 66.736 22.888C66.736 20.438 64.972 19.626 62.676 19.626H59.274V30ZM61.346 24.68V21.278H62.522C63.95 21.278 64.706 21.684 64.706 22.888C64.706 24.078 64.02 24.68 62.592 24.68H61.346ZM68.6119 30H74.8979V28.264H70.6839V19.626H68.6119V30ZM78.8913 24.596C79.1993 23.518 79.5073 22.342 79.7733 21.208H79.8433C80.1373 22.328 80.4173 23.518 80.7393 24.596L81.0473 25.73H78.5833L78.8913 24.596ZM75.3073 30H77.4073L78.1353 27.34H81.4953L82.2233 30H84.3933L81.0613 19.626H78.6253L75.3073 30ZM87.0963 30H89.1683V26.206L92.2903 19.626H90.1343L89.0983 22.16C88.8043 22.93 88.4963 23.658 88.1743 24.456H88.1183C87.7963 23.658 87.5163 22.93 87.2223 22.16L86.1863 19.626H83.9883L87.0963 26.206V30ZM99.7469 30.196C102.141 30.196 103.555 28.754 103.555 27.06C103.555 25.562 102.729 24.764 101.469 24.246L100.111 23.672C99.2289 23.322 98.5009 23.056 98.5009 22.314C98.5009 21.628 99.0749 21.222 99.9849 21.222C100.839 21.222 101.525 21.53 102.183 22.076L103.233 20.774C102.393 19.92 101.189 19.444 99.9849 19.444C97.8849 19.444 96.4009 20.746 96.4009 22.44C96.4009 23.952 97.4509 24.792 98.5009 25.226L99.8869 25.814C100.811 26.206 101.441 26.444 101.441 27.214C101.441 27.942 100.867 28.404 99.7889 28.404C98.8789 28.404 97.8989 27.942 97.1569 27.256L95.9669 28.684C96.9749 29.65 98.3609 30.196 99.7469 30.196ZM107.119 30H109.191V21.362H112.131V19.626H104.207V21.362H107.119V30ZM117.49 30.196C120.234 30.196 122.124 28.138 122.124 24.778C122.124 21.418 120.234 19.444 117.49 19.444C114.746 19.444 112.856 21.404 112.856 24.778C112.856 28.138 114.746 30.196 117.49 30.196ZM117.49 28.404C115.95 28.404 114.97 26.99 114.97 24.778C114.97 22.552 115.95 21.222 117.49 21.222C119.03 21.222 120.01 22.552 120.01 24.778C120.01 26.99 119.03 28.404 117.49 28.404ZM124.147 30H126.219V26.08H127.661L129.789 30H132.099L129.677 25.758C130.867 25.296 131.651 24.33 131.651 22.776C131.651 20.396 129.929 19.626 127.759 19.626H124.147V30ZM126.219 24.442V21.278H127.563C128.893 21.278 129.635 21.656 129.635 22.776C129.635 23.882 128.893 24.442 127.563 24.442H126.219ZM133.69 30H140.2V28.264H135.762V25.492H139.402V23.756H135.762V21.362H140.046V19.626H133.69V30Z" fill="white"/>
<path d="M47 25.5L29.75 35.4593L29.75 15.5407L47 25.5Z" fill="white"/>
</svg>
