<svg width="28" height="28" viewBox="0 0 28 28" fill="none" xmlns="http://www.w3.org/2000/svg">
<path d="M5.92891 10.5838C4.06681 13.8151 5.25058 18.7188 7.30976 21.6921C8.33762 23.1786 9.37825 24.513 10.8036 24.513C10.8305 24.513 10.8574 24.5125 10.885 24.5114C11.5546 24.4847 12.0386 24.2785 12.5065 24.0792C13.0318 23.8554 13.575 23.6239 14.4272 23.6239C15.2379 23.6239 15.7552 23.8479 16.2556 24.0644C16.7487 24.2777 17.2566 24.4984 18.007 24.4843C19.6125 24.4544 20.5983 23.0145 21.468 21.7443C22.3755 20.4181 22.8308 19.1304 22.9844 18.6383L22.9906 18.6187C23.0199 18.5313 22.9785 18.4358 22.8947 18.3973C22.8924 18.3962 22.8839 18.3927 22.8815 18.3917C22.5988 18.2761 20.1187 17.1759 20.0926 14.1771C20.0684 11.7408 21.9531 10.4507 22.3311 10.2169L22.3488 10.2059C22.3897 10.1795 22.4182 10.1377 22.4279 10.0899C22.4376 10.0422 22.4275 9.99249 22.4 9.95234C21.0991 8.04857 19.1052 7.76165 18.3025 7.72713C18.186 7.71551 18.0657 7.70966 17.945 7.70966C17.0021 7.70966 16.0989 8.06575 15.3733 8.35188C14.8724 8.54939 14.4398 8.71996 14.1414 8.71996C13.8061 8.71996 13.371 8.54729 12.8671 8.3474C12.1933 8.07998 11.4296 7.77696 10.6212 7.77696C10.6019 7.77696 10.5829 7.77718 10.5642 7.77754C8.6844 7.8052 6.90817 8.88064 5.92891 10.5838Z" fill="#111111"/>
<path d="M18.304 2.48714C17.1656 2.5335 15.8001 3.23422 14.9839 4.19022C14.2902 4.99377 13.6126 6.33353 13.7912 7.68397C13.8024 7.76847 13.8711 7.83368 13.9561 7.84025C14.0329 7.84624 14.1114 7.84928 14.1895 7.84935C15.3026 7.84935 16.5033 7.23356 17.3233 6.24203C18.1864 5.19504 18.6228 3.85138 18.4908 2.64782C18.4804 2.55351 18.3974 2.48346 18.304 2.48714Z" fill="#111111"/>
</svg>
